<svg width="16" height="16" viewBox="0 0 16 16" fill="none" xmlns="http://www.w3.org/2000/svg">
<g clip-path="url(#clip0_81_2)">
<path d="M7.99976 13.501C3.07826 13.501 0.830508 8.72023 0.520508 8.00073C0.830008 7.28023 3.07176 2.50098 7.99976 2.50098C12.9213 2.50098 15.169 7.28173 15.479 8.00123C15.1695 8.72173 12.9278 13.501 7.99976 13.501Z" fill="#93B8BE"/>
<path d="M8 11.501C9.933 11.501 11.5 9.93397 11.5 8.00098C11.5 6.06798 9.933 4.50098 8 4.50098C6.067 4.50098 4.5 6.06798 4.5 8.00098C4.5 9.93397 6.067 11.501 8 11.501Z" fill="#F2D184"/>
<path d="M8 9.50195C8.82843 9.50195 9.5 8.83038 9.5 8.00195C9.5 7.17353 8.82843 6.50195 8 6.50195C7.17157 6.50195 6.5 7.17353 6.5 8.00195C6.5 8.83038 7.17157 9.50195 8 9.50195Z" fill="#F0AE4B"/>
<path d="M15.9837 7.91123C15.9799 7.90198 15.9197 7.74973 15.7987 7.49923C15.1494 6.15673 12.7552 2.00098 8.00019 2.00098C2.35819 2.00098 0.0396875 7.85198 0.0166875 7.91123C-0.0055625 7.96898 -0.0055625 8.03298 0.0166875 8.09098C0.0396875 8.14998 2.35819 14.001 8.00019 14.001C12.7527 14.001 15.1469 9.84973 15.7974 8.50523C15.9189 8.25348 15.9797 8.10023 15.9834 8.09098C16.0057 8.03298 16.0057 7.96898 15.9837 7.91123ZM8.00019 13.501C3.07869 13.501 0.830938 8.72023 0.520938 8.00073C0.830438 7.28023 3.07219 2.50098 8.00019 2.50098C12.9217 2.50098 15.1694 7.28173 15.4794 8.00123C15.1699 8.72173 12.9282 13.501 8.00019 13.501Z" fill="#394240"/>
<path d="M8 4.00195C5.79075 4.00195 4 5.7927 4 8.00195C4 10.2112 5.79075 12.002 8 12.002C10.2092 12.002 12 10.2112 12 8.00195C12 5.7927 10.2092 4.00195 8 4.00195ZM8 11.502C6.067 11.502 4.5 9.93495 4.5 8.00195C4.5 6.06895 6.067 4.50195 8 4.50195C9.933 4.50195 11.5 6.06895 11.5 8.00195C11.5 9.93495 9.933 11.502 8 11.502Z" fill="#394240"/>
<path d="M8 6.00195C6.8955 6.00195 6 6.89745 6 8.00195C6 9.10645 6.8955 10.002 8 10.002C9.1045 10.002 10 9.10645 10 8.00195C10 6.89745 9.1045 6.00195 8 6.00195ZM8 9.50195C7.17175 9.50195 6.5 8.8302 6.5 8.00195C6.5 7.1737 7.17175 6.50195 8 6.50195C8.82825 6.50195 9.5 7.1737 9.5 8.00195C9.5 8.8302 8.82825 9.50195 8 9.50195Z" fill="#394240"/>
<path d="M8 7.00098C7.86175 7.00098 7.75 7.11273 7.75 7.25098C7.75 7.38923 7.86175 7.50098 8 7.50098C8.276 7.50098 8.5 7.72498 8.5 8.00098C8.5 8.13923 8.61175 8.25098 8.75 8.25098C8.88825 8.25098 9 8.13923 9 8.00098C9 7.44873 8.55225 7.00098 8 7.00098Z" fill="#394240"/>
</g>
<defs>
<clipPath id="clip0_81_2">
<rect width="16" height="16" fill="white"/>
</clipPath>
</defs>
</svg>
